REM DIRINDEX 1\2,1\3,1\4,1\5
REM DIRNAME folder01,folder02,folder03,folder04,folder05
TITLE ""
FILE "P1Q_t_1461-1470.mp3" MP3
  TRACK 01 AUDIO
    TITLE "3:cjc005_5291"
    INDEX 01 00:00:00
  TRACK 02 AUDIO
    TITLE "0:"
    INDEX 01 00:00:74
  TRACK 03 AUDIO
    TITLE "4:cjc005_5292"
    INDEX 01 00:01:26
  TRACK 04 AUDIO
    TITLE "0:"
    INDEX 01 00:02:67
  TRACK 05 AUDIO
    TITLE "5:cjc005_5293"
    INDEX 01 00:03:21
  TRACK 06 AUDIO
    TITLE "0:"
    INDEX 01 00:06:67
  TRACK 07 AUDIO
    TITLE "3:cjc005_5294"
    INDEX 01 00:07:54
  TRACK 08 AUDIO
    TITLE "0:"
    INDEX 01 00:09:14
  TRACK 09 AUDIO
    TITLE "4:cjc005_5295"
    INDEX 01 00:09:40
  TRACK 10 AUDIO
    TITLE "0:"
    INDEX 01 00:11:07
  TRACK 11 AUDIO
    TITLE "5:cjc005_5296"
    INDEX 01 00:11:40
  TRACK 12 AUDIO
    TITLE "0:"
    INDEX 01 00:16:48
  TRACK 13 AUDIO
    TITLE "3:cjc005_5297"
    INDEX 01 00:17:23
  TRACK 14 AUDIO
    TITLE "0:"
    INDEX 01 00:18:50
  TRACK 15 AUDIO
    TITLE "4:cjc005_5298"
    INDEX 01 00:18:74
  TRACK 16 AUDIO
    TITLE "0:"
    INDEX 01 00:20:51
  TRACK 17 AUDIO
    TITLE "5:cjc005_5299"
    INDEX 01 00:21:04
  TRACK 18 AUDIO
    TITLE "0:"
    INDEX 01 00:24:47
  TRACK 19 AUDIO
    TITLE "3:cjc005_5300"
    INDEX 01 00:25:17
  TRACK 20 AUDIO
    TITLE "0:"
    INDEX 01 00:26:44
  TRACK 21 AUDIO
    TITLE "4:cjc005_5301"
    INDEX 01 00:27:00
  TRACK 22 AUDIO
    TITLE "0:"
    INDEX 01 00:28:27
  TRACK 23 AUDIO
    TITLE "5:cjc005_5302"
    INDEX 01 00:28:47
  TRACK 24 AUDIO
    TITLE "0:"
    INDEX 01 00:32:62
  TRACK 25 AUDIO
    TITLE "3:cjc005_5303"
    INDEX 01 00:33:42
  TRACK 26 AUDIO
    TITLE "0:"
    INDEX 01 00:34:57
  TRACK 27 AUDIO
    TITLE "4:cjc005_5304"
    INDEX 01 00:35:12
  TRACK 28 AUDIO
    TITLE "0:"
    INDEX 01 00:36:40
  TRACK 29 AUDIO
    TITLE "5:cjc005_5305"
    INDEX 01 00:36:64
  TRACK 30 AUDIO
    TITLE "0:"
    INDEX 01 00:41:38
  TRACK 31 AUDIO
    TITLE "3:cjc005_5306"
    INDEX 01 00:42:18
  TRACK 32 AUDIO
    TITLE "0:"
    INDEX 01 00:43:40
  TRACK 33 AUDIO
    TITLE "4:cjc005_5307"
    INDEX 01 00:43:66
  TRACK 34 AUDIO
    TITLE "0:"
    INDEX 01 00:45:08
  TRACK 35 AUDIO
    TITLE "5:cjc005_5308"
    INDEX 01 00:45:30
  TRACK 36 AUDIO
    TITLE "0:"
    INDEX 01 00:50:23
  TRACK 37 AUDIO
    TITLE "3:cjc005_5309"
    INDEX 01 00:51:03
  TRACK 38 AUDIO
    TITLE "0:"
    INDEX 01 00:52:26
  TRACK 39 AUDIO
    TITLE "4:cjc005_5310"
    INDEX 01 00:52:55
  TRACK 40 AUDIO
    TITLE "0:"
    INDEX 01 00:54:11
  TRACK 41 AUDIO
    TITLE "5:cjc005_5311"
    INDEX 01 00:54:34
  TRACK 42 AUDIO
    TITLE "0:"
    INDEX 01 00:58:44
  TRACK 43 AUDIO
    TITLE "3:cjc005_5312"
    INDEX 01 00:59:22
  TRACK 44 AUDIO
    TITLE "0:"
    INDEX 01 01:00:41
  TRACK 45 AUDIO
    TITLE "4:cjc005_5313"
    INDEX 01 01:00:74
  TRACK 46 AUDIO
    TITLE "0:"
    INDEX 01 01:02:32
  TRACK 47 AUDIO
    TITLE "5:cjc005_5314"
    INDEX 01 01:02:61
  TRACK 48 AUDIO
    TITLE "0:"
    INDEX 01 01:06:42
  TRACK 49 AUDIO
    TITLE "3:cjc005_5315"
    INDEX 01 01:07:21
  TRACK 50 AUDIO
    TITLE "0:"
    INDEX 01 01:08:35
  TRACK 51 AUDIO
    TITLE "4:cjc005_5316"
    INDEX 01 01:08:60
  TRACK 52 AUDIO
    TITLE "0:"
    INDEX 01 01:09:73
  TRACK 53 AUDIO
    TITLE "5:cjc005_5317"
    INDEX 01 01:10:20
  TRACK 54 AUDIO
    TITLE "0:"
    INDEX 01 01:13:40
  TRACK 55 AUDIO
    TITLE "3:cjc005_5318"
    INDEX 01 01:14:17
  TRACK 56 AUDIO
    TITLE "0:"
    INDEX 01 01:15:31
  TRACK 57 AUDIO
    TITLE "4:cjc005_5319"
    INDEX 01 01:15:56
  TRACK 58 AUDIO
    TITLE "0:"
    INDEX 01 01:17:16
  TRACK 59 AUDIO
    TITLE "5:cjc005_5320"
    INDEX 01 01:17:37
  TRACK 60 AUDIO
    TITLE "0:"
    INDEX 01 01:21:61
